<svg xmlns="http://www.w3.org/2000/svg" xmlns:xlink="http://www.w3.org/1999/xlink" width="500" zoomAndPan="magnify" viewBox="0 0 375 374.999991" height="500" preserveAspectRatio="xMidYMid meet" version="1.0"><defs><g/><clipPath id="5d00d8ae2b"><path d="M 254.65625 147 L 333 147 L 333 152 L 254.65625 152 Z M 254.65625 147 " clip-rule="nonzero"/></clipPath><clipPath id="33d6d33769"><path d="M 42 147 L 120.230469 147 L 120.230469 152 L 42 152 Z M 42 147 " clip-rule="nonzero"/></clipPath><clipPath id="9dd1b0ee5d"><path d="M 42.234375 74 L 332.484375 74 L 332.484375 130.980469 L 42.234375 130.980469 Z M 42.234375 74 " clip-rule="nonzero"/></clipPath></defs><rect x="-37.5" width="450" fill="#ffffff" y="-37.499999" height="449.999989" fill-opacity="1"/><rect x="-37.5" width="450" fill="#ffffff" y="-37.499999" height="449.999989" fill-opacity="1"/><path fill="#000000" d="M 328.519531 220.367188 C 328.195312 220.175781 327.824219 220.070312 327.441406 220.042969 C 307.769531 218.914062 295.242188 218.972656 276.277344 219.046875 C 271.242188 219.0625 265.539062 219.09375 259.144531 219.09375 L 228.96875 219.09375 C 228.96875 219.09375 227.140625 219.109375 227.140625 219.109375 C 227.125 219.09375 227.109375 219.0625 227.082031 219.046875 C 222.679688 214.285156 216.285156 217.683594 211.851562 220.652344 C 210.878906 221.304688 209.84375 222.046875 208.765625 222.859375 C 206.84375 222.34375 204.851562 221.332031 203.152344 220.488281 C 200.449219 219.121094 198.648438 218.234375 197.347656 219.046875 C 196.90625 219.316406 196.386719 219.894531 196.386719 221.109375 C 196.386719 222.429688 196.90625 224.316406 199.34375 225.769531 C 200.375 226.390625 201.707031 226.898438 203.316406 227.28125 C 198.648438 231.226562 193.300781 236.152344 187.304688 241.746094 C 181.308594 236.152344 175.960938 231.242188 171.292969 227.28125 C 172.90625 226.898438 174.234375 226.390625 175.253906 225.769531 C 177.691406 224.316406 178.207031 222.429688 178.207031 221.109375 C 178.207031 219.894531 177.675781 219.316406 177.246094 219.046875 C 175.933594 218.234375 174.144531 219.136719 171.441406 220.488281 C 169.742188 221.347656 167.734375 222.34375 165.828125 222.859375 C 164.75 222.046875 163.71875 221.304688 162.742188 220.652344 C 158.3125 217.683594 151.917969 214.285156 147.515625 219.046875 C 147.5 219.0625 147.484375 219.09375 147.457031 219.109375 L 145.625 219.109375 C 145.625 219.109375 115.449219 219.09375 115.449219 219.09375 C 109.070312 219.09375 103.351562 219.0625 98.316406 219.046875 C 79.351562 218.960938 66.828125 218.914062 47.152344 220.042969 C 46.753906 220.070312 46.402344 220.175781 46.074219 220.367188 C 42.945312 222.238281 45.691406 230.753906 47.007812 233.882812 C 47.804688 235.78125 48.46875 236.96875 48.5 237.015625 L 48.824219 237.59375 L 49.488281 237.59375 C 49.902344 237.59375 91.273438 237.546875 103.382812 237.5625 C 107.265625 237.5625 114.238281 237.28125 114.3125 237.28125 L 115.496094 237.238281 L 115.390625 236.066406 C 115.390625 236.066406 115.199219 233.675781 115.699219 231.96875 C 116.113281 230.574219 116.734375 229.417969 117.105469 228.808594 C 128.34375 228.808594 137.324219 228.648438 145.269531 228.5 C 146.171875 228.484375 147.042969 228.46875 147.914062 228.453125 C 148.816406 229.625 150.039062 230.933594 151.652344 232.414062 C 154.324219 234.90625 157.78125 237.726562 162.179688 241.285156 C 166.15625 244.507812 170.6875 248.199219 175.753906 252.5625 C 174.558594 253.675781 173.378906 254.773438 172.238281 255.839844 C 170.703125 257.265625 169.226562 258.644531 167.78125 259.980469 C 157.46875 269.59375 149.199219 277.410156 144.488281 283.480469 C 141.207031 287.691406 137.355469 293.847656 141.738281 298.613281 C 143.558594 300.585938 145.742188 301.179688 148.210938 300.390625 C 150.160156 299.753906 152.34375 298.253906 155.300781 295.496094 C 157.972656 293.003906 161.03125 289.753906 164.898438 285.628906 C 170.703125 279.445312 177.898438 271.773438 187.320312 262.960938 C 196.742188 271.773438 203.9375 279.445312 209.742188 285.628906 C 213.609375 289.753906 216.667969 293.019531 219.339844 295.496094 C 222.292969 298.253906 224.480469 299.753906 226.429688 300.390625 C 228.898438 301.191406 231.066406 300.597656 232.898438 298.613281 C 237.285156 293.847656 233.445312 287.691406 230.152344 283.480469 C 225.441406 277.425781 217.167969 269.59375 206.859375 259.980469 C 205.425781 258.644531 203.9375 257.265625 202.398438 255.839844 C 201.246094 254.773438 200.082031 253.691406 198.882812 252.5625 C 203.949219 248.214844 208.484375 244.519531 212.457031 241.285156 C 216.84375 237.726562 220.316406 234.90625 222.988281 232.414062 C 224.597656 230.917969 225.824219 229.625 226.726562 228.453125 C 227.582031 228.46875 228.46875 228.484375 229.371094 228.5 C 237.316406 228.648438 246.296875 228.808594 257.535156 228.808594 C 257.90625 229.433594 258.539062 230.589844 258.9375 231.96875 C 259.457031 233.675781 259.25 236.050781 259.25 236.066406 L 259.144531 237.238281 L 260.328125 237.28125 C 260.328125 237.28125 267.371094 237.5625 271.257812 237.5625 C 283.367188 237.5625 324.738281 237.59375 325.152344 237.59375 L 325.816406 237.59375 L 326.140625 237.015625 C 326.140625 237.015625 326.835938 235.769531 327.632812 233.882812 C 328.949219 230.753906 331.695312 222.238281 328.5625 220.367188 Z M 202.296875 225.859375 C 201.367188 225.5625 200.566406 225.21875 199.902344 224.820312 C 198.324219 223.871094 197.496094 222.652344 197.496094 221.125 C 197.496094 220.875 197.527344 220.664062 197.585938 220.488281 C 197.644531 220.324219 197.71875 220.191406 197.835938 220.085938 C 198.277344 219.703125 199.121094 219.894531 200.214844 220.355469 C 200.496094 220.472656 200.773438 220.605469 201.085938 220.738281 C 201.234375 220.8125 201.394531 220.886719 201.558594 220.960938 C 201.882812 221.109375 202.207031 221.289062 202.546875 221.453125 C 202.726562 221.539062 202.886719 221.628906 203.0625 221.71875 C 203.773438 222.074219 204.511719 222.445312 205.28125 222.785156 C 205.472656 222.875 205.664062 222.949219 205.855469 223.039062 C 206.445312 223.292969 207.050781 223.527344 207.65625 223.722656 C 207.480469 223.855469 207.304688 224.003906 207.125 224.136719 C 205.457031 223.558594 203.816406 222.726562 202.386719 222.015625 C 200.761719 221.199219 198.722656 220.175781 198.21875 220.503906 C 198.117188 220.5625 198.058594 220.800781 198.058594 221.125 C 198.058594 222.429688 198.75 223.484375 200.183594 224.328125 C 201.335938 225.011719 202.917969 225.546875 204.925781 225.917969 C 204.75 226.066406 204.554688 226.230469 204.363281 226.378906 C 203.609375 226.230469 202.917969 226.050781 202.28125 225.84375 Z M 168.710938 223.039062 C 168.902344 222.949219 169.09375 222.875 169.285156 222.785156 C 170.054688 222.445312 170.792969 222.074219 171.5 221.71875 C 171.679688 221.628906 171.855469 221.539062 172.019531 221.453125 C 172.359375 221.289062 172.699219 221.109375 173.007812 220.960938 C 173.171875 220.886719 173.316406 220.8125 173.480469 220.738281 C 173.789062 220.589844 174.070312 220.457031 174.351562 220.355469 C 175.460938 219.894531 176.285156 219.714844 176.730469 220.085938 C 176.832031 220.175781 176.921875 220.308594 176.980469 220.488281 C 177.039062 220.664062 177.070312 220.875 177.070312 221.125 C 177.070312 222.652344 176.257812 223.886719 174.675781 224.820312 C 174.011719 225.21875 173.214844 225.5625 172.285156 225.859375 C 171.648438 226.066406 170.953125 226.230469 170.203125 226.390625 C 170.007812 226.230469 169.832031 226.082031 169.640625 225.933594 C 171.648438 225.5625 173.230469 225.027344 174.382812 224.34375 C 175.8125 223.5 176.507812 222.445312 176.507812 221.140625 C 176.507812 220.8125 176.449219 220.578125 176.347656 220.515625 C 175.828125 220.191406 173.804688 221.214844 172.164062 222.03125 C 170.734375 222.757812 169.09375 223.574219 167.425781 224.152344 C 167.246094 224.019531 167.070312 223.871094 166.894531 223.738281 C 167.5 223.542969 168.105469 223.304688 168.695312 223.054688 Z M 116.453125 227.667969 C 116.453125 227.667969 115.433594 229.105469 114.742188 231.140625 C 114.652344 231.554688 114.5625 231.984375 114.503906 232.414062 C 114.328125 233.632812 114.28125 234.878906 114.238281 236.152344 C 114.238281 236.152344 110.738281 236.40625 106.085938 236.40625 C 105.109375 236.421875 104.164062 236.4375 103.351562 236.4375 C 91.109375 236.4375 49.457031 236.464844 49.457031 236.464844 C 49.457031 236.464844 48.808594 235.292969 48.027344 233.4375 C 47.566406 232.339844 47.125 231.082031 46.753906 229.820312 C 45.734375 226.777344 45.335938 223.515625 46.074219 222.015625 C 46.105469 221.941406 46.148438 221.867188 46.195312 221.792969 C 46.195312 221.777344 46.222656 221.761719 46.222656 221.75 C 46.269531 221.675781 46.328125 221.601562 46.402344 221.539062 C 46.402344 221.539062 46.402344 221.539062 46.414062 221.511719 C 46.488281 221.4375 46.5625 221.378906 46.636719 221.332031 C 46.800781 221.230469 46.992188 221.171875 47.214844 221.171875 C 72.101562 219.746094 85.113281 220.207031 115.449219 220.234375 C 128.507812 220.234375 140.117188 220.25 146.597656 220.265625 C 146.480469 220.457031 146.378906 220.636719 146.289062 220.828125 L 145.179688 220.828125 C 145.179688 220.828125 141.445312 226.792969 141.445312 226.792969 C 142.65625 226.792969 143.835938 226.761719 145.003906 226.75 C 145.59375 226.75 146.171875 226.75 146.730469 226.734375 C 146.851562 226.941406 146.96875 227.132812 147.101562 227.339844 C 138.816406 227.488281 128.90625 227.683594 116.46875 227.683594 Z M 178.265625 254.773438 C 180.554688 256.773438 182.949219 258.910156 185.429688 261.210938 C 185.117188 261.507812 184.792969 261.804688 184.484375 262.101562 C 179.375 262.234375 174.144531 262.589844 169.035156 263.230469 Z M 157.351562 273.941406 L 166.6875 265.378906 C 171.796875 264.859375 177.097656 264.445312 182.355469 264.132812 C 179.652344 266.730469 176.980469 269.371094 174.382812 272.070312 C 172.492188 274.027344 170.601562 276.003906 168.753906 278.003906 C 168.636719 278.136719 168.503906 278.273438 168.386719 278.40625 C 163.867188 277.53125 159.257812 276.847656 154.738281 276.433594 C 155.609375 275.601562 156.480469 274.769531 157.367188 273.953125 Z M 154.117188 294.21875 C 148.992188 298.984375 145.726562 300.453125 142.9375 297.425781 C 142.152344 296.429688 141.679688 295.230469 141.679688 294.027344 C 141.667969 292.8125 142.035156 291.640625 142.566406 290.542969 C 142.832031 290.007812 143.128906 289.472656 143.4375 288.953125 C 141.519531 292.46875 141.519531 295.035156 143.351562 297.023438 C 144.574219 298.359375 145.847656 298.714844 147.484375 298.179688 C 149.082031 297.664062 151.074219 296.269531 153.734375 293.773438 C 155.046875 292.558594 156.464844 291.132812 158.03125 289.503906 C 153.746094 288.257812 149.363281 287.246094 145.046875 286.609375 C 145.59375 285.898438 146.1875 285.199219 146.777344 284.519531 C 148.402344 282.648438 150.128906 280.851562 151.917969 279.101562 C 152.109375 278.910156 152.316406 278.71875 152.507812 278.523438 C 156.96875 278.96875 161.621094 279.742188 166.199219 280.71875 C 165.195312 281.816406 164.203125 282.914062 163.214844 284.011719 C 167.027344 280.113281 170.808594 276.195312 174.660156 272.351562 C 178.324219 268.703125 182.03125 265.082031 185.8125 261.550781 C 185.886719 261.613281 185.945312 261.6875 186.019531 261.746094 C 170.378906 276.375 160.703125 288.035156 154.085938 294.191406 Z M 145.90625 291.207031 C 146.480469 290.660156 147.398438 290.703125 147.945312 291.28125 C 148.488281 291.863281 148.445312 292.78125 147.871094 293.332031 C 147.292969 293.878906 146.378906 293.835938 145.832031 293.257812 C 145.285156 292.675781 145.328125 291.757812 145.90625 291.207031 Z M 207.878906 265.378906 L 217.214844 273.941406 C 218.101562 274.757812 218.972656 275.585938 219.84375 276.417969 C 215.324219 276.832031 210.699219 277.53125 206.195312 278.390625 C 206.078125 278.257812 205.945312 278.125 205.828125 277.988281 C 203.964844 276.003906 202.089844 274.015625 200.199219 272.054688 C 197.585938 269.355469 194.925781 266.730469 192.222656 264.117188 C 197.480469 264.429688 202.785156 264.847656 207.894531 265.363281 Z M 205.53125 263.230469 C 200.40625 262.574219 195.191406 262.234375 190.082031 262.101562 C 189.773438 261.804688 189.460938 261.507812 189.136719 261.210938 C 188.929688 261.019531 188.722656 260.824219 188.515625 260.617188 C 188.308594 260.425781 188.101562 260.230469 187.894531 260.054688 C 187.820312 259.996094 187.75 259.921875 187.6875 259.859375 C 187.554688 259.742188 187.421875 259.609375 187.277344 259.492188 C 184.914062 257.324219 182.519531 255.1875 180.097656 253.082031 C 179.242188 252.339844 178.382812 251.597656 177.527344 250.871094 C 177.113281 250.515625 176.683594 250.160156 176.273438 249.800781 C 174.175781 248.050781 172.078125 246.316406 169.964844 244.609375 C 167.839844 242.917969 165.710938 241.210938 163.554688 239.550781 C 167.707031 243.082031 171.886719 246.570312 176.007812 250.144531 C 176.40625 250.5 176.804688 250.839844 177.21875 251.195312 C 178.074219 251.9375 178.914062 252.679688 179.773438 253.4375 C 182.179688 255.558594 184.558594 257.710938 186.90625 259.890625 C 187.039062 260.007812 187.171875 260.144531 187.320312 260.277344 C 187.394531 260.335938 187.453125 260.410156 187.527344 260.46875 C 187.75 260.675781 187.953125 260.871094 188.175781 261.078125 C 188.367188 261.253906 188.574219 261.449219 188.765625 261.625 C 192.5625 265.15625 196.253906 268.761719 199.933594 272.425781 C 203.789062 276.269531 207.570312 280.199219 211.378906 284.085938 C 210.390625 282.988281 209.386719 281.878906 208.394531 280.792969 C 212.976562 279.828125 217.628906 279.042969 222.089844 278.597656 C 222.28125 278.792969 222.488281 278.984375 222.679688 279.175781 C 224.464844 280.925781 226.195312 282.707031 227.820312 284.59375 C 228.410156 285.273438 229 285.972656 229.546875 286.683594 C 225.234375 287.320312 220.847656 288.34375 216.5625 289.578125 C 218.128906 291.207031 219.546875 292.632812 220.863281 293.847656 C 223.535156 296.339844 225.515625 297.738281 227.125 298.253906 C 228.75 298.773438 230.035156 298.417969 231.261719 297.097656 C 233.089844 295.109375 233.089844 292.527344 231.171875 289.027344 C 231.480469 289.546875 231.777344 290.066406 232.042969 290.617188 C 232.558594 291.714844 232.945312 292.886719 232.929688 294.101562 C 232.929688 295.304688 232.457031 296.519531 231.671875 297.5 C 228.882812 300.511719 225.601562 299.058594 220.492188 294.292969 C 213.890625 288.136719 204.203125 276.476562 188.558594 261.847656 C 188.367188 261.671875 188.175781 261.492188 187.984375 261.316406 C 187.761719 261.105469 187.542969 260.898438 187.320312 260.691406 C 187.246094 260.632812 187.1875 260.558594 187.113281 260.5 C 186.980469 260.367188 186.832031 260.246094 186.699219 260.113281 C 184.234375 257.828125 181.839844 255.691406 179.550781 253.691406 C 178.679688 252.933594 177.824219 252.191406 176.980469 251.464844 C 166.257812 242.238281 157.839844 235.960938 152.789062 231.242188 C 151.722656 230.265625 150.824219 229.34375 150.070312 228.484375 C 149.730469 228.097656 149.433594 227.726562 149.15625 227.371094 C 149.007812 227.164062 148.859375 226.96875 148.726562 226.777344 C 147.203125 224.539062 146.984375 222.683594 148.269531 220.902344 C 148.402344 220.710938 148.5625 220.53125 148.726562 220.339844 C 148.726562 220.339844 148.753906 220.308594 148.753906 220.292969 C 149.242188 219.835938 149.789062 219.464844 150.378906 219.210938 C 150.914062 218.972656 151.472656 218.824219 152.035156 218.78125 C 153.230469 218.675781 154.425781 218.960938 155.550781 219.40625 C 156.082031 219.613281 156.597656 219.863281 157.117188 220.117188 C 154.871094 219.109375 153.023438 218.796875 151.519531 219.195312 C 150.765625 219.40625 150.101562 219.777344 149.496094 220.324219 C 149.375 220.429688 149.257812 220.546875 149.15625 220.664062 C 149.082031 220.738281 149.023438 220.8125 148.960938 220.886719 C 147.574219 222.550781 147.648438 224.328125 149.390625 226.761719 C 149.523438 226.957031 149.6875 227.148438 149.847656 227.355469 C 150.128906 227.710938 150.453125 228.082031 150.792969 228.46875 C 151.457031 229.195312 152.242188 229.980469 153.15625 230.828125 C 153.46875 231.109375 153.792969 231.40625 154.117188 231.703125 C 163.394531 235.011719 173.511719 238.734375 183.289062 242.546875 C 183.820312 243.050781 184.367188 243.570312 184.898438 244.074219 C 185.710938 244.847656 186.507812 245.605469 187.320312 246.375 C 189.699219 248.628906 192.089844 250.886719 194.496094 253.125 C 194.617188 253.246094 194.734375 253.347656 194.867188 253.46875 C 194.925781 253.527344 195 253.585938 195.058594 253.644531 L 195.101562 253.691406 L 196.359375 254.832031 L 205.589844 263.289062 Z M 228.734375 293.257812 C 228.1875 293.835938 227.285156 293.878906 226.695312 293.332031 C 226.121094 292.78125 226.074219 291.875 226.621094 291.28125 C 227.167969 290.703125 228.070312 290.660156 228.660156 291.207031 C 229.238281 291.757812 229.28125 292.664062 228.734375 293.257812 Z M 155.402344 224.953125 C 154.855469 225.53125 153.953125 225.574219 153.363281 225.027344 C 152.789062 224.476562 152.742188 223.574219 153.289062 222.980469 C 153.835938 222.402344 154.738281 222.355469 155.328125 222.90625 C 155.90625 223.453125 155.949219 224.359375 155.402344 224.953125 Z M 225.882812 226.6875 C 225.75 226.882812 225.601562 227.089844 225.457031 227.28125 C 225.191406 227.636719 224.878906 228.007812 224.539062 228.394531 C 223.785156 229.253906 222.871094 230.175781 221.820312 231.15625 C 216.757812 235.871094 208.351562 242.148438 197.628906 251.375 C 197.539062 251.300781 197.464844 251.226562 197.378906 251.136719 C 197.777344 250.78125 198.175781 250.441406 198.574219 250.085938 C 202.679688 246.507812 206.859375 243.023438 211.023438 239.492188 C 208.867188 241.152344 206.742188 242.859375 204.617188 244.550781 C 202.503906 246.257812 200.390625 247.992188 198.292969 249.742188 C 197.878906 250.097656 197.453125 250.457031 197.039062 250.8125 C 195.382812 249.269531 193.789062 247.785156 192.238281 246.332031 C 191.382812 245.53125 190.539062 244.742188 189.710938 243.972656 C 190.246094 243.46875 190.789062 242.949219 191.324219 242.445312 C 201.085938 238.632812 211.21875 234.90625 220.492188 231.597656 C 220.816406 231.300781 221.144531 231.007812 221.453125 230.722656 C 222.367188 229.878906 223.152344 229.09375 223.816406 228.367188 C 224.171875 227.980469 224.480469 227.609375 224.761719 227.253906 C 224.921875 227.042969 225.070312 226.851562 225.21875 226.660156 C 226.960938 224.226562 227.050781 222.445312 225.648438 220.785156 C 225.589844 220.710938 225.515625 220.636719 225.457031 220.5625 C 225.335938 220.441406 225.234375 220.324219 225.117188 220.21875 C 224.511719 219.671875 223.84375 219.285156 223.09375 219.09375 C 221.585938 218.691406 219.753906 218.988281 217.507812 220.011719 C 218.027344 219.746094 218.542969 219.507812 219.074219 219.300781 C 220.199219 218.855469 221.394531 218.574219 222.589844 218.675781 C 223.152344 218.722656 223.710938 218.871094 224.246094 219.109375 C 224.835938 219.375 225.382812 219.746094 225.867188 220.191406 C 225.867188 220.191406 225.898438 220.21875 225.898438 220.234375 C 226.074219 220.429688 226.222656 220.605469 226.355469 220.800781 C 227.640625 222.578125 227.417969 224.449219 225.898438 226.675781 Z M 219.238281 222.90625 C 219.8125 222.355469 220.730469 222.402344 221.277344 222.980469 C 221.820312 223.558594 221.777344 224.476562 221.203125 225.027344 C 220.625 225.574219 219.710938 225.53125 219.164062 224.953125 C 218.617188 224.375 218.660156 223.453125 219.238281 222.90625 Z M 327.824219 229.804688 C 327.457031 231.082031 327.011719 232.328125 326.554688 233.425781 C 325.773438 235.277344 325.121094 236.449219 325.121094 236.449219 C 325.121094 236.449219 283.472656 236.40625 271.226562 236.421875 C 270.414062 236.421875 269.484375 236.421875 268.496094 236.390625 C 263.84375 236.390625 260.339844 236.140625 260.339844 236.140625 C 260.296875 234.847656 260.253906 233.601562 260.074219 232.402344 C 260.015625 231.96875 259.929688 231.539062 259.839844 231.125 C 259.144531 229.09375 258.125 227.652344 258.125 227.652344 C 245.691406 227.652344 235.78125 227.460938 227.507812 227.3125 C 227.640625 227.105469 227.757812 226.898438 227.878906 226.703125 C 228.453125 226.703125 229.015625 226.703125 229.605469 226.71875 C 230.773438 226.71875 231.953125 226.75 233.164062 226.761719 L 229.429688 220.800781 L 228.320312 220.800781 C 228.230469 220.605469 228.128906 220.429688 228.011719 220.234375 C 234.496094 220.234375 246.089844 220.234375 259.144531 220.207031 C 289.484375 220.191406 302.496094 219.714844 327.382812 221.140625 C 327.601562 221.140625 327.78125 221.214844 327.957031 221.304688 C 328.046875 221.347656 328.121094 221.40625 328.195312 221.480469 C 328.195312 221.480469 328.195312 221.496094 328.210938 221.511719 C 328.269531 221.570312 328.328125 221.644531 328.386719 221.71875 C 328.386719 221.734375 328.402344 221.75 328.414062 221.761719 C 328.460938 221.835938 328.488281 221.898438 328.535156 221.984375 C 329.273438 223.484375 328.875 226.75 327.855469 229.789062 Z M 327.824219 229.804688 " fill-opacity="1" fill-rule="nonzero"/><path fill="#000000" d="M 245.171875 220.8125 L 249 226.941406 C 249.425781 226.941406 249.855469 226.941406 250.285156 226.941406 L 246.445312 220.8125 L 245.160156 220.8125 Z M 245.171875 220.8125 " fill-opacity="1" fill-rule="nonzero"/><path fill="#000000" d="M 327.664062 221.835938 C 327.574219 221.777344 327.46875 221.75 327.351562 221.75 C 307.722656 220.621094 295.226562 220.679688 276.292969 220.753906 C 271.257812 220.769531 265.539062 220.800781 259.144531 220.8125 L 250.710938 220.8125 C 250.710938 220.8125 254.566406 226.96875 254.566406 226.96875 C 255.820312 226.96875 257.105469 226.96875 258.40625 226.96875 C 258.183594 226.464844 257.980469 225.976562 257.757812 225.472656 C 257.238281 224.328125 256.738281 223.171875 256.324219 221.941406 C 257.136719 222.933594 257.859375 223.972656 258.523438 225.058594 C 259.191406 226.140625 259.78125 227.28125 260.238281 228.511719 C 260.445312 229.121094 260.621094 229.761719 260.753906 230.398438 C 260.785156 230.605469 260.8125 230.828125 260.84375 231.035156 C 261.09375 232.265625 261.199219 233.796875 260.992188 235.648438 C 262.160156 235.722656 264.890625 235.855469 268.242188 235.855469 C 265.199219 235.144531 262.320312 233.675781 262.320312 233.675781 C 262.320312 233.675781 266.160156 233.78125 272.617188 233.914062 C 269.335938 233.707031 266.058594 233.46875 262.792969 233.15625 C 267.949219 232.875 273.089844 232.785156 278.214844 232.757812 C 280.785156 232.726562 283.351562 232.757812 285.910156 232.757812 C 288.476562 232.769531 291.035156 232.859375 293.601562 232.859375 L 301.296875 232.890625 C 303.867188 232.933594 306.4375 232.949219 308.992188 233.023438 C 314.132812 233.140625 319.257812 233.335938 324.398438 233.707031 C 321.488281 233.929688 318.566406 234.089844 315.640625 234.226562 C 318.785156 234.210938 321.945312 234.164062 325.109375 234.121094 C 326.097656 232.785156 327.027344 230.769531 327.664062 228.425781 C 328.667969 224.761719 328.402344 222.296875 327.648438 221.835938 Z M 309.007812 231.761719 C 303.867188 231.867188 298.726562 231.894531 293.589844 231.925781 C 288.449219 231.867188 283.308594 231.71875 278.183594 231.554688 C 273.042969 231.390625 267.917969 231.15625 262.792969 230.84375 C 267.933594 230.710938 273.074219 230.648438 278.214844 230.679688 C 280.78125 230.679688 283.351562 230.710938 285.910156 230.722656 C 288.476562 230.753906 291.046875 230.8125 293.601562 230.8125 C 298.742188 230.8125 303.867188 230.8125 309.007812 230.902344 C 314.148438 230.960938 319.273438 231.09375 324.414062 231.300781 C 319.289062 231.539062 314.148438 231.6875 309.007812 231.777344 Z M 309.007812 229.847656 L 293.601562 229.953125 C 288.464844 229.878906 283.339844 229.761719 278.199219 229.640625 L 270.503906 229.433594 L 262.808594 229.167969 L 270.519531 229.167969 C 270.519531 229.167969 278.214844 229.226562 278.214844 229.226562 L 293.617188 229.417969 L 309.023438 229.449219 C 314.164062 229.476562 319.289062 229.523438 324.429688 229.625 C 319.289062 229.761719 314.164062 229.820312 309.023438 229.878906 Z M 310.011719 222.933594 L 293.398438 222.847656 L 276.765625 222.757812 C 271.226562 222.726562 265.671875 222.652344 260.136719 222.535156 C 262.910156 222.371094 265.671875 222.269531 268.449219 222.132812 C 271.226562 222.03125 273.988281 221.957031 276.765625 221.882812 C 279.542969 221.808594 282.304688 221.777344 285.082031 221.75 L 293.398438 221.75 C 298.933594 221.75 304.488281 221.851562 310.027344 222.058594 C 315.566406 222.269531 321.121094 222.566406 326.628906 223.15625 C 321.089844 222.996094 315.535156 222.996094 309.996094 222.933594 Z M 310.011719 222.933594 " fill-opacity="1" fill-rule="nonzero"/><path fill="#000000" d="M 231.984375 220.8125 L 235.734375 226.808594 C 236.828125 226.808594 237.9375 226.835938 239.058594 226.835938 L 235.277344 220.800781 L 231.96875 220.800781 Z M 231.984375 220.8125 " fill-opacity="1" fill-rule="nonzero"/><path fill="#000000" d="M 220.921875 224.746094 C 221.335938 224.359375 221.363281 223.707031 220.980469 223.292969 C 220.597656 222.875 219.945312 222.847656 219.53125 223.230469 C 219.121094 223.617188 219.089844 224.269531 219.472656 224.6875 C 219.859375 225.101562 220.507812 225.132812 220.921875 224.746094 Z M 220.921875 224.746094 " fill-opacity="1" fill-rule="nonzero"/><path fill="#000000" d="M 147.589844 293.035156 C 148.003906 292.648438 148.03125 291.996094 147.648438 291.578125 C 147.265625 291.164062 146.613281 291.132812 146.199219 291.519531 C 145.785156 291.90625 145.757812 292.558594 146.140625 292.972656 C 146.527344 293.390625 147.175781 293.417969 147.589844 293.035156 Z M 147.589844 293.035156 " fill-opacity="1" fill-rule="nonzero"/><path fill="#000000" d="M 124.296875 226.941406 C 124.726562 226.941406 125.152344 226.941406 125.582031 226.941406 L 129.40625 220.8125 L 128.121094 220.8125 C 128.121094 220.8125 124.28125 226.941406 124.28125 226.941406 Z M 124.296875 226.941406 " fill-opacity="1" fill-rule="nonzero"/><path fill="#000000" d="M 98.300781 220.753906 C 79.367188 220.679688 66.855469 220.621094 47.242188 221.75 C 47.125 221.75 47.019531 221.792969 46.933594 221.835938 C 46.164062 222.296875 45.914062 224.746094 46.902344 228.425781 C 47.539062 230.769531 48.484375 232.785156 49.457031 234.121094 C 52.617188 234.179688 55.78125 234.210938 58.925781 234.226562 C 56 234.089844 53.089844 233.929688 50.167969 233.707031 C 55.308594 233.335938 60.445312 233.140625 65.570312 233.023438 C 68.140625 232.949219 70.699219 232.933594 73.265625 232.890625 L 80.960938 232.859375 C 83.53125 232.859375 86.085938 232.785156 88.65625 232.757812 C 91.226562 232.757812 93.796875 232.710938 96.351562 232.757812 C 101.492188 232.785156 106.632812 232.875 111.773438 233.15625 C 108.507812 233.484375 105.230469 233.722656 101.949219 233.914062 C 108.390625 233.78125 112.246094 233.675781 112.246094 233.675781 C 112.246094 233.675781 109.363281 235.160156 106.320312 235.855469 C 109.675781 235.855469 112.421875 235.707031 113.574219 235.648438 C 113.367188 233.796875 113.46875 232.265625 113.722656 231.035156 C 113.75 230.828125 113.78125 230.605469 113.808594 230.398438 C 113.941406 229.761719 114.121094 229.121094 114.328125 228.511719 C 114.785156 227.28125 115.359375 226.140625 116.039062 225.058594 C 116.707031 223.972656 117.429688 222.933594 118.242188 221.941406 C 117.84375 223.15625 117.324219 224.328125 116.808594 225.472656 C 116.585938 225.976562 116.367188 226.464844 116.160156 226.96875 C 117.457031 226.96875 118.742188 226.96875 120 226.96875 L 123.839844 220.828125 L 115.40625 220.828125 C 109.011719 220.828125 103.308594 220.800781 98.257812 220.769531 Z M 96.410156 231.539062 C 91.273438 231.71875 86.148438 231.851562 81.007812 231.910156 C 75.867188 231.882812 70.726562 231.851562 65.585938 231.746094 C 60.445312 231.660156 55.308594 231.496094 50.183594 231.273438 C 55.320312 231.066406 60.460938 230.933594 65.585938 230.871094 C 70.726562 230.796875 75.851562 230.785156 80.992188 230.785156 C 83.5625 230.785156 86.132812 230.710938 88.6875 230.695312 C 91.257812 230.695312 93.828125 230.648438 96.398438 230.648438 C 101.535156 230.636719 106.660156 230.695312 111.800781 230.8125 C 106.675781 231.125 101.535156 231.363281 96.410156 231.523438 Z M 104.105469 229.402344 L 96.410156 229.613281 C 91.273438 229.746094 86.148438 229.847656 81.007812 229.921875 L 65.601562 229.820312 C 60.460938 229.757812 55.335938 229.699219 50.195312 229.566406 C 55.335938 229.464844 60.460938 229.417969 65.601562 229.390625 L 81.007812 229.359375 L 96.410156 229.167969 L 104.105469 229.105469 L 111.816406 229.105469 C 111.816406 229.105469 104.121094 229.390625 104.121094 229.390625 Z M 97.828125 222.757812 L 81.199219 222.847656 L 64.582031 222.933594 C 59.042969 222.996094 53.503906 222.996094 47.953125 223.15625 C 53.476562 222.566406 59.015625 222.253906 64.554688 222.058594 C 70.089844 221.851562 75.644531 221.75 81.183594 221.734375 L 89.5 221.734375 C 92.277344 221.792969 95.039062 221.824219 97.816406 221.898438 C 100.589844 221.972656 103.351562 222.046875 106.128906 222.148438 C 108.90625 222.28125 111.667969 222.386719 114.445312 222.550781 C 108.890625 222.683594 103.351562 222.757812 97.816406 222.773438 Z M 97.828125 222.757812 " fill-opacity="1" fill-rule="nonzero"/><path fill="#000000" d="M 139.289062 220.8125 L 135.507812 226.851562 C 136.644531 226.851562 137.753906 226.835938 138.832031 226.824219 L 142.582031 220.828125 L 139.273438 220.828125 Z M 139.289062 220.8125 " fill-opacity="1" fill-rule="nonzero"/><path fill="#000000" d="M 153.660156 224.746094 C 154.074219 225.132812 154.722656 225.101562 155.105469 224.6875 C 155.492188 224.269531 155.460938 223.617188 155.046875 223.230469 C 154.632812 222.847656 153.984375 222.875 153.601562 223.292969 C 153.214844 223.707031 153.246094 224.359375 153.660156 224.746094 Z M 153.660156 224.746094 " fill-opacity="1" fill-rule="nonzero"/><path fill="#000000" d="M 226.992188 293.035156 C 227.40625 293.417969 228.054688 293.390625 228.4375 292.972656 C 228.824219 292.558594 228.792969 291.90625 228.378906 291.519531 C 227.964844 291.132812 227.316406 291.164062 226.933594 291.578125 C 226.546875 291.996094 226.578125 292.648438 226.992188 293.035156 Z M 226.992188 293.035156 " fill-opacity="1" fill-rule="nonzero"/><g clip-path="url(#5d00d8ae2b)"><path fill="#000000" d="M 264.511719 147.324219 C 262.941406 148.222656 259.019531 148.789062 255.425781 149.125 C 254.867188 149.179688 254.300781 149.226562 253.722656 149.273438 C 254.300781 149.320312 254.867188 149.367188 255.425781 149.421875 C 259.015625 149.757812 262.941406 150.324219 264.511719 151.222656 C 275.824219 150.195312 306.347656 149.601562 332.601562 149.273438 C 306.347656 148.945312 275.820312 148.351562 264.511719 147.324219 Z M 264.511719 147.324219 " fill-opacity="1" fill-rule="evenodd"/></g><g clip-path="url(#33d6d33769)"><path fill="#000000" d="M 110.480469 147.324219 C 112.050781 148.222656 115.976562 148.789062 119.566406 149.125 C 120.125 149.179688 120.691406 149.226562 121.269531 149.273438 C 120.691406 149.320312 120.125 149.367188 119.566406 149.421875 C 115.976562 149.757812 112.050781 150.324219 110.480469 151.222656 C 99.167969 150.195312 68.644531 149.601562 42.390625 149.273438 C 68.644531 148.945312 99.171875 148.351562 110.480469 147.324219 Z M 110.480469 147.324219 " fill-opacity="1" fill-rule="evenodd"/></g><g clip-path="url(#9dd1b0ee5d)"><path fill="#100f0d" d="M 187.300781 130.933594 C 194.960938 130.933594 187.300781 112.507812 187.300781 112.507812 C 187.300781 112.507812 179.636719 130.933594 187.300781 130.933594 Z M 187.300781 103.019531 C 194.671875 86.007812 207.308594 88.515625 207.308594 88.515625 C 206.425781 85.652344 202.785156 85.472656 202.785156 85.472656 C 194.695312 79.746094 189.710938 94.246094 189.710938 94.246094 C 190.195312 86.546875 196.25 81.890625 196.25 81.890625 C 194.679688 80.28125 190.660156 81.890625 190.660156 81.890625 C 190.660156 81.890625 191.914062 74.015625 187.300781 74.015625 C 182.683594 74.015625 183.9375 81.890625 183.9375 81.890625 C 183.9375 81.890625 179.914062 80.28125 178.347656 81.890625 C 178.347656 81.890625 184.402344 86.546875 184.886719 94.246094 C 184.886719 94.246094 179.902344 79.746094 171.808594 85.472656 C 171.808594 85.472656 168.171875 85.652344 167.289062 88.515625 C 167.289062 88.515625 179.925781 86.007812 187.300781 103.019531 Z M 83.476562 115.113281 C 83.476562 115.113281 82.660156 115.113281 81.304688 115.113281 C 82.0625 115.15625 82.792969 115.160156 83.476562 115.113281 Z M 62.222656 106.019531 C 56.878906 99.558594 52.09375 99.671875 52.09375 99.671875 L 54.0625 104.3125 C 45.476562 102.058594 42.234375 113.851562 42.234375 113.851562 C 42.234375 113.851562 46.886719 109.542969 53.078125 109.542969 C 59.269531 109.542969 70.246094 115.113281 75.03125 115.113281 C 77.566406 115.113281 79.78125 115.113281 81.304688 115.113281 C 75.191406 114.800781 66.984375 111.765625 62.222656 106.019531 Z M 83.722656 113.839844 C 83.871094 113.84375 84.023438 113.851562 84.179688 113.851562 C 84.179688 113.851562 84.011719 113.851562 83.722656 113.839844 Z M 83.722656 113.839844 C 83.476562 113.832031 83.144531 113.816406 82.742188 113.78125 C 83.054688 113.8125 83.382812 113.835938 83.722656 113.839844 Z M 76.71875 102.292969 C 79.816406 102.292969 81.222656 105.421875 81.222656 105.421875 C 81.222656 105.421875 84.230469 101.035156 80.378906 97.691406 C 76.8125 94.59375 67.433594 96.847656 69.824219 105.421875 C 71.703125 112.15625 79.488281 113.511719 82.742188 113.78125 C 74.121094 112.871094 73.78125 102.292969 76.71875 102.292969 Z M 89.949219 112.289062 C 87.839844 111.820312 83.476562 112.289062 83.476562 112.289062 C 83.476562 112.289062 88.542969 114.449219 90.933594 115.113281 C 92.652344 115.59375 97.578125 115.320312 100.050781 115.171875 C 97.003906 114.890625 91.730469 112.6875 89.949219 112.289062 Z M 101.488281 115.113281 C 101.621094 115.078125 101.027344 115.117188 100.050781 115.171875 C 100.617188 115.226562 101.117188 115.21875 101.488281 115.113281 Z M 106.835938 115.3125 C 104.023438 115.3125 100.363281 118.957031 100.363281 118.957031 C 100.363281 118.957031 108.429688 121.667969 116.40625 115.3125 C 116.964844 114.867188 109.652344 115.3125 106.835938 115.3125 Z M 101.488281 112.289062 C 93.886719 105.902344 86.007812 106.019531 86.007812 106.019531 C 86.007812 106.019531 90.652344 109.519531 92.625 111.351562 C 94.59375 113.183594 101.488281 112.289062 101.488281 112.289062 Z M 99.519531 102.496094 C 95.78125 94.0625 98.671875 85.492188 98.671875 85.492188 C 90.089844 87.378906 92.765625 99.238281 92.765625 99.238281 C 90.089844 97.261719 86.007812 99.242188 86.007812 99.242188 C 89.386719 99.101562 96.140625 105.15625 101.910156 109.992188 C 107.679688 114.828125 122.175781 113.746094 122.175781 113.746094 C 122.175781 113.746094 103.253906 110.929688 99.519531 102.496094 Z M 120.347656 111.351562 C 114.425781 107.066406 109.511719 103.183594 110.355469 106.9375 C 111.199219 110.6875 120.347656 111.351562 120.347656 111.351562 Z M 152.292969 110.507812 C 152.855469 106.140625 154.703125 102.292969 154.703125 102.292969 C 145.292969 110.875 151.730469 114.871094 152.292969 110.507812 Z M 152.292969 91.496094 C 152.292969 91.496094 148.210938 88.1875 146.238281 85.964844 C 144.269531 83.75 138.359375 89.945312 152.292969 91.496094 Z M 150.746094 98.253906 C 150.746094 98.253906 145.257812 97.269531 140.894531 101.636719 C 136.53125 106 131.886719 108.113281 127.664062 108.113281 C 123.441406 108.113281 120.488281 100.226562 126.398438 94.59375 C 126.398438 94.59375 122.144531 96.046875 121.472656 103.183594 C 120.800781 110.316406 129.632812 111.070312 133.292969 108.957031 C 136.953125 106.84375 142.722656 98.957031 150.746094 98.253906 Z M 172.21875 103.863281 C 170.058594 106.101562 172.742188 108.054688 172.742188 108.054688 C 172.644531 105.902344 175.125 105.027344 175.953125 106.425781 C 176.632812 107.570312 176.046875 109.886719 173.054688 109.5 C 170.0625 109.113281 169.035156 102.589844 174.363281 102.496094 C 177.640625 102.4375 179.890625 105.097656 181.136719 107.160156 C 177.726562 101.175781 172.839844 99.128906 168.097656 98.097656 C 161.648438 96.695312 157.066406 101.933594 156.507812 106.9375 C 155.945312 111.933594 157.671875 115.78125 161.089844 115.96875 C 164.503906 116.15625 164.640625 114.472656 164.640625 114.472656 C 163.796875 114.472656 161.835938 114.097656 161.835938 111.664062 C 161.835938 109.234375 164.234375 108.183594 166.324219 110.167969 C 168.261719 112.011719 167.632812 116.625 161.554688 116.808594 C 155.476562 117 152.863281 110.261719 154.703125 104.367188 C 156.542969 98.472656 167.828125 93.921875 176.234375 99.78125 C 180.59375 102.820312 182.5625 106.882812 183.457031 110.089844 C 182.519531 105.296875 180.953125 102.769531 177.730469 99.59375 C 172.671875 94.621094 167.207031 94.855469 161.863281 94.757812 C 161.660156 95.128906 154.542969 96.847656 150.039062 104.03125 C 145.539062 111.210938 144.835938 113.464844 141.597656 114.308594 C 141.597656 114.308594 142.722656 108.394531 142.722656 107.972656 C 142.722656 107.550781 137.9375 119.839844 125.273438 115.3125 C 125.273438 115.3125 128.652344 114.167969 129.492188 112.476562 C 129.492188 112.476562 118.09375 113.886719 115 101.496094 L 117.953125 103.464844 C 117.953125 103.464844 115.703125 89.382812 132.449219 94.027344 C 132.449219 94.027344 126.257812 97.550781 126.257812 101.636719 C 126.257812 105.71875 132.730469 106.265625 136.25 100.640625 C 139.769531 95.015625 145.957031 95.15625 145.957031 95.15625 C 145.957031 95.15625 135.546875 95.042969 134.136719 85.964844 L 136.25 86.847656 C 136.25 86.847656 134.558594 76.890625 140.332031 76.890625 C 146.097656 76.890625 145.257812 84.59375 141.035156 84.453125 C 141.035156 84.453125 145.003906 80.226562 141.035156 80.226562 C 137.066406 80.226562 135.953125 95.164062 157.421875 94.035156 C 157.421875 94.035156 157.429688 94.03125 157.429688 94.03125 C 154.652344 92.75 154.246094 89.972656 155.105469 87.898438 C 156.226562 85.1875 160.808594 85.375 161.273438 88.179688 C 161.742188 90.988281 158.285156 90.707031 158.191406 89.304688 C 158.097656 87.898438 159.03125 87.527344 159.03125 87.527344 C 158.191406 86.496094 155.757812 87.058594 155.757812 89.863281 C 155.757812 92.671875 158.097656 93.699219 162.957031 93.699219 C 167.820312 93.699219 172.304688 93.886719 177.542969 98.191406 C 182.292969 102.097656 183.882812 109.15625 184.136719 113.925781 C 184.203125 114.792969 184.179688 115.3125 184.179688 115.3125 C 183.589844 112.757812 182.839844 110.59375 181.964844 108.746094 C 180.191406 105.472656 174.601562 101.394531 172.21875 103.863281 Z M 293.414062 115.113281 C 292.0625 115.113281 291.246094 115.113281 291.246094 115.113281 C 291.925781 115.160156 292.65625 115.15625 293.414062 115.113281 Z M 320.65625 104.3125 L 322.628906 99.671875 C 322.628906 99.671875 317.84375 99.558594 312.496094 106.019531 C 307.738281 111.765625 299.53125 114.800781 293.414062 115.113281 C 294.941406 115.113281 297.152344 115.113281 299.6875 115.113281 C 304.472656 115.113281 315.453125 109.542969 321.644531 109.542969 C 327.835938 109.542969 332.484375 113.851562 332.484375 113.851562 C 332.484375 113.851562 329.242188 102.058594 320.65625 104.3125 Z M 291 113.839844 C 291.335938 113.835938 291.664062 113.8125 291.980469 113.78125 C 291.574219 113.816406 291.242188 113.832031 291 113.839844 Z M 291 113.839844 C 290.710938 113.851562 290.542969 113.851562 290.542969 113.851562 C 290.699219 113.851562 290.847656 113.84375 291 113.839844 Z M 304.894531 105.421875 C 307.289062 96.847656 297.90625 94.59375 294.34375 97.691406 C 290.492188 101.035156 293.496094 105.421875 293.496094 105.421875 C 293.496094 105.421875 294.90625 102.292969 298 102.292969 C 300.941406 102.292969 300.597656 112.871094 291.980469 113.78125 C 295.230469 113.511719 303.015625 112.15625 304.894531 105.421875 Z M 273.230469 115.113281 C 273.605469 115.21875 274.105469 115.226562 274.667969 115.171875 C 273.695312 115.117188 273.101562 115.078125 273.230469 115.113281 Z M 284.773438 112.289062 C 282.992188 112.6875 277.714844 114.890625 274.667969 115.171875 C 277.144531 115.320312 282.070312 115.59375 283.785156 115.113281 C 286.179688 114.449219 291.246094 112.289062 291.246094 112.289062 C 291.246094 112.289062 286.882812 111.820312 284.773438 112.289062 Z M 258.316406 115.3125 C 266.289062 121.667969 274.359375 118.957031 274.359375 118.957031 C 274.359375 118.957031 270.699219 115.3125 267.882812 115.3125 C 265.070312 115.3125 257.753906 114.867188 258.316406 115.3125 Z M 282.097656 111.351562 C 284.066406 109.519531 288.710938 106.019531 288.710938 106.019531 C 288.710938 106.019531 280.832031 105.902344 273.230469 112.289062 C 273.230469 112.289062 280.128906 113.183594 282.097656 111.351562 Z M 288.710938 99.242188 C 288.710938 99.242188 284.628906 97.261719 281.957031 99.238281 C 281.957031 99.238281 284.628906 87.378906 276.046875 85.492188 C 276.046875 85.492188 278.9375 94.0625 275.203125 102.496094 C 271.46875 110.929688 252.542969 113.746094 252.542969 113.746094 C 252.542969 113.746094 267.039062 114.828125 272.808594 109.992188 C 278.582031 105.15625 285.335938 99.101562 288.710938 99.242188 Z M 264.363281 106.9375 C 265.210938 103.183594 260.292969 107.066406 254.375 111.351562 C 254.375 111.351562 263.523438 110.6875 264.363281 106.9375 Z M 220.019531 102.292969 C 220.019531 102.292969 221.863281 106.140625 222.429688 110.507812 C 222.992188 114.871094 229.425781 110.875 220.019531 102.292969 Z M 253.25 103.183594 C 252.574219 96.046875 248.320312 94.59375 248.320312 94.59375 C 254.234375 100.226562 251.277344 108.113281 247.054688 108.113281 C 242.835938 108.113281 238.191406 106 233.828125 101.636719 C 229.464844 97.269531 223.976562 98.253906 223.976562 98.253906 C 231.996094 98.957031 237.769531 106.84375 241.425781 108.957031 C 245.085938 111.070312 253.921875 110.316406 253.25 103.183594 Z M 249.449219 115.3125 C 236.78125 119.839844 231.996094 107.550781 231.996094 107.972656 C 231.996094 108.394531 233.125 114.308594 233.125 114.308594 C 229.886719 113.464844 229.183594 111.210938 224.679688 104.03125 C 220.175781 96.847656 213.0625 95.128906 212.855469 94.757812 C 207.515625 94.855469 202.050781 94.621094 196.992188 99.59375 C 193.765625 102.769531 192.199219 105.296875 191.265625 110.089844 C 192.15625 106.882812 194.125 102.820312 198.488281 99.78125 C 206.894531 93.921875 218.175781 98.472656 220.019531 104.367188 C 221.859375 110.261719 219.242188 117 213.164062 116.808594 C 207.089844 116.625 206.457031 112.011719 208.398438 110.167969 C 210.484375 108.183594 212.882812 109.234375 212.882812 111.664062 C 212.882812 114.097656 210.921875 114.472656 210.082031 114.472656 C 210.082031 114.472656 210.21875 116.15625 213.632812 115.96875 C 217.046875 115.78125 218.777344 111.933594 218.214844 106.9375 C 217.652344 101.933594 213.074219 96.695312 206.621094 98.097656 C 201.882812 99.128906 196.992188 101.175781 193.582031 107.160156 C 194.828125 105.097656 197.078125 102.4375 200.359375 102.496094 C 205.683594 102.589844 204.65625 109.113281 201.667969 109.5 C 198.671875 109.886719 198.089844 107.570312 198.765625 106.425781 C 199.597656 105.027344 202.074219 105.902344 201.980469 108.054688 C 201.980469 108.054688 204.660156 106.101562 202.503906 103.863281 C 200.121094 101.394531 194.527344 105.472656 192.757812 108.746094 C 191.882812 110.59375 191.132812 112.757812 190.539062 115.3125 C 190.539062 115.3125 190.515625 114.792969 190.582031 113.925781 C 190.835938 109.15625 192.425781 102.097656 197.175781 98.191406 C 202.414062 93.886719 206.898438 93.699219 211.761719 93.699219 C 216.625 93.699219 218.960938 92.671875 218.960938 89.863281 C 218.960938 87.058594 216.53125 86.496094 215.6875 87.527344 C 215.6875 87.527344 216.625 87.898438 216.53125 89.304688 C 216.4375 90.707031 212.980469 90.988281 213.445312 88.179688 C 213.914062 85.375 218.496094 85.1875 219.617188 87.898438 C 220.472656 89.972656 220.066406 92.75 217.289062 94.03125 C 217.292969 94.03125 217.300781 94.035156 217.300781 94.035156 C 238.769531 95.164062 237.652344 80.226562 233.6875 80.226562 C 229.722656 80.226562 233.6875 84.453125 233.6875 84.453125 C 229.464844 84.59375 228.621094 76.890625 234.390625 76.890625 C 240.160156 76.890625 238.472656 86.847656 238.472656 86.847656 L 240.582031 85.964844 C 239.175781 95.042969 228.761719 95.15625 228.761719 95.15625 C 228.761719 95.15625 234.953125 95.015625 238.472656 100.640625 C 241.988281 106.265625 248.464844 105.71875 248.464844 101.636719 C 248.464844 97.550781 242.273438 94.027344 242.273438 94.027344 C 259.019531 89.382812 256.765625 103.464844 256.765625 103.464844 L 259.722656 101.496094 C 256.625 113.886719 245.226562 112.476562 245.226562 112.476562 C 246.070312 114.167969 249.449219 115.3125 249.449219 115.3125 Z M 222.429688 91.496094 C 222.429688 91.496094 226.511719 88.1875 228.480469 85.964844 C 230.449219 83.75 236.359375 89.945312 222.429688 91.496094 " fill-opacity="1" fill-rule="nonzero"/></g><g fill="#000000" fill-opacity="1"><g transform="translate(43.169441, 200.081778)"><g><path d="M 3.609375 0 L 3.609375 -27.765625 L 15.453125 -27.765625 C 17.160156 -27.765625 18.609375 -27.492188 19.796875 -26.953125 C 20.984375 -26.421875 21.878906 -25.65625 22.484375 -24.65625 C 23.085938 -23.664062 23.390625 -22.492188 23.390625 -21.140625 C 23.390625 -19.910156 23.09375 -18.828125 22.5 -17.890625 C 21.90625 -16.953125 21.050781 -16.195312 19.9375 -15.625 L 19.9375 -15.234375 C 21.6875 -14.773438 23.035156 -13.941406 23.984375 -12.734375 C 24.929688 -11.535156 25.40625 -10.0625 25.40625 -8.3125 C 25.40625 -5.65625 24.601562 -3.601562 23 -2.15625 C 21.40625 -0.71875 19.03125 0 15.875 0 Z M 14.3125 -16.6875 C 16.875 -16.6875 18.15625 -17.835938 18.15625 -20.140625 C 18.15625 -21.316406 17.835938 -22.191406 17.203125 -22.765625 C 16.566406 -23.347656 15.601562 -23.640625 14.3125 -23.640625 L 9.09375 -23.640625 L 9.09375 -16.6875 Z M 15.328125 -4.34375 C 18.347656 -4.34375 19.859375 -5.71875 19.859375 -8.46875 C 19.859375 -11.226562 18.347656 -12.609375 15.328125 -12.609375 L 9.09375 -12.609375 L 9.09375 -4.34375 Z M 15.328125 -4.34375 "/></g></g></g><g fill="#000000" fill-opacity="1"><g transform="translate(72.700103, 200.081778)"><g><path d="M 26.640625 0 L 20.875 0 L 18.78125 -6.40625 L 8.140625 -6.40625 L 6.0625 0 L 0.421875 0 L 10 -27.765625 L 17.046875 -27.765625 Z M 13.203125 -21.96875 L 9.625 -11.015625 L 17.265625 -11.015625 L 13.671875 -21.96875 Z M 13.203125 -21.96875 "/></g></g></g><g fill="#000000" fill-opacity="1"><g transform="translate(102.135813, 200.081778)"><g><path d="M 3.609375 0 L 3.609375 -27.765625 L 14.75 -27.765625 C 17.625 -27.765625 19.789062 -27.101562 21.25 -25.78125 C 22.71875 -24.457031 23.453125 -22.628906 23.453125 -20.296875 C 23.453125 -18.617188 23.023438 -17.238281 22.171875 -16.15625 C 21.316406 -15.082031 20.039062 -14.257812 18.34375 -13.6875 L 18.34375 -13.296875 C 19.21875 -12.910156 19.921875 -12.34375 20.453125 -11.59375 C 20.992188 -10.851562 21.503906 -9.75 21.984375 -8.28125 L 24.765625 0 L 19.125 0 L 16.40625 -8.296875 C 16.125 -9.128906 15.804688 -9.773438 15.453125 -10.234375 C 15.109375 -10.703125 14.664062 -11.039062 14.125 -11.25 C 13.59375 -11.457031 12.898438 -11.5625 12.046875 -11.5625 L 9.09375 -11.5625 L 9.09375 0 Z M 14.09375 -15.90625 C 16.75 -15.90625 18.078125 -17.148438 18.078125 -19.640625 C 18.078125 -22.160156 16.75 -23.421875 14.09375 -23.421875 L 9.09375 -23.421875 L 9.09375 -15.90625 Z M 14.09375 -15.90625 "/></g></g></g><g fill="#000000" fill-opacity="1"><g transform="translate(130.470015, 200.081778)"><g><path d="M 3.609375 0 L 3.609375 -27.765625 L 15.453125 -27.765625 C 17.160156 -27.765625 18.609375 -27.492188 19.796875 -26.953125 C 20.984375 -26.421875 21.878906 -25.65625 22.484375 -24.65625 C 23.085938 -23.664062 23.390625 -22.492188 23.390625 -21.140625 C 23.390625 -19.910156 23.09375 -18.828125 22.5 -17.890625 C 21.90625 -16.953125 21.050781 -16.195312 19.9375 -15.625 L 19.9375 -15.234375 C 21.6875 -14.773438 23.035156 -13.941406 23.984375 -12.734375 C 24.929688 -11.535156 25.40625 -10.0625 25.40625 -8.3125 C 25.40625 -5.65625 24.601562 -3.601562 23 -2.15625 C 21.40625 -0.71875 19.03125 0 15.875 0 Z M 14.3125 -16.6875 C 16.875 -16.6875 18.15625 -17.835938 18.15625 -20.140625 C 18.15625 -21.316406 17.835938 -22.191406 17.203125 -22.765625 C 16.566406 -23.347656 15.601562 -23.640625 14.3125 -23.640625 L 9.09375 -23.640625 L 9.09375 -16.6875 Z M 15.328125 -4.34375 C 18.347656 -4.34375 19.859375 -5.71875 19.859375 -8.46875 C 19.859375 -11.226562 18.347656 -12.609375 15.328125 -12.609375 L 9.09375 -12.609375 L 9.09375 -4.34375 Z M 15.328125 -4.34375 "/></g></g></g><g fill="#000000" fill-opacity="1"><g transform="translate(160.000679, 200.081778)"><g><path d="M 9.09375 -12.1875 L 9.09375 -4.59375 L 22.34375 -4.59375 L 22.34375 0 L 3.609375 0 L 3.609375 -27.765625 L 22.046875 -27.765625 L 22.046875 -23.171875 L 9.09375 -23.171875 L 9.09375 -16.671875 L 20.40625 -16.671875 L 20.40625 -12.1875 Z M 9.09375 -12.1875 "/></g></g></g><g fill="#000000" fill-opacity="1"><g transform="translate(186.245825, 200.081778)"><g><path d="M 3.609375 0 L 3.609375 -27.765625 L 14.75 -27.765625 C 17.625 -27.765625 19.789062 -27.101562 21.25 -25.78125 C 22.71875 -24.457031 23.453125 -22.628906 23.453125 -20.296875 C 23.453125 -18.617188 23.023438 -17.238281 22.171875 -16.15625 C 21.316406 -15.082031 20.039062 -14.257812 18.34375 -13.6875 L 18.34375 -13.296875 C 19.21875 -12.910156 19.921875 -12.34375 20.453125 -11.59375 C 20.992188 -10.851562 21.503906 -9.75 21.984375 -8.28125 L 24.765625 0 L 19.125 0 L 16.40625 -8.296875 C 16.125 -9.128906 15.804688 -9.773438 15.453125 -10.234375 C 15.109375 -10.703125 14.664062 -11.039062 14.125 -11.25 C 13.59375 -11.457031 12.898438 -11.5625 12.046875 -11.5625 L 9.09375 -11.5625 L 9.09375 0 Z M 14.09375 -15.90625 C 16.75 -15.90625 18.078125 -17.148438 18.078125 -19.640625 C 18.078125 -22.160156 16.75 -23.421875 14.09375 -23.421875 L 9.09375 -23.421875 L 9.09375 -15.90625 Z M 14.09375 -15.90625 "/></g></g></g><g fill="#000000" fill-opacity="1"><g transform="translate(214.580033, 200.081778)"><g><path d="M 12.3125 0.40625 C 10.382812 0.40625 8.671875 0.164062 7.171875 -0.3125 C 5.671875 -0.789062 4.421875 -1.414062 3.421875 -2.1875 C 2.421875 -2.957031 1.65625 -3.804688 1.125 -4.734375 L 4.140625 -8.40625 L 4.609375 -8.40625 C 5.453125 -7.164062 6.515625 -6.175781 7.796875 -5.4375 C 9.078125 -4.707031 10.582031 -4.34375 12.3125 -4.34375 C 13.78125 -4.34375 14.882812 -4.648438 15.625 -5.265625 C 16.375 -5.890625 16.75 -6.75 16.75 -7.84375 C 16.75 -8.5 16.628906 -9.046875 16.390625 -9.484375 C 16.148438 -9.929688 15.75 -10.3125 15.1875 -10.625 C 14.632812 -10.945312 13.882812 -11.222656 12.9375 -11.453125 L 9.359375 -12.265625 C 6.867188 -12.835938 5.007812 -13.785156 3.78125 -15.109375 C 2.5625 -16.429688 1.953125 -18.148438 1.953125 -20.265625 C 1.953125 -21.828125 2.34375 -23.203125 3.125 -24.390625 C 3.914062 -25.585938 5.0625 -26.515625 6.5625 -27.171875 C 8.0625 -27.828125 9.851562 -28.15625 11.9375 -28.15625 C 14.082031 -28.15625 15.914062 -27.875 17.4375 -27.3125 C 18.96875 -26.75 20.257812 -25.882812 21.3125 -24.71875 L 18.59375 -21 L 18.109375 -21 C 17.328125 -21.820312 16.429688 -22.4375 15.421875 -22.84375 C 14.410156 -23.257812 13.25 -23.46875 11.9375 -23.46875 C 10.4375 -23.46875 9.289062 -23.203125 8.5 -22.671875 C 7.71875 -22.140625 7.328125 -21.40625 7.328125 -20.46875 C 7.328125 -19.59375 7.601562 -18.894531 8.15625 -18.375 C 8.707031 -17.863281 9.660156 -17.460938 11.015625 -17.171875 L 14.65625 -16.40625 C 17.351562 -15.832031 19.304688 -14.863281 20.515625 -13.5 C 21.734375 -12.144531 22.34375 -10.375 22.34375 -8.1875 C 22.34375 -6.445312 21.96875 -4.9375 21.21875 -3.65625 C 20.476562 -2.375 19.351562 -1.375 17.84375 -0.65625 C 16.34375 0.0507812 14.5 0.40625 12.3125 0.40625 Z M 12.3125 0.40625 "/></g></g></g><g fill="#000000" fill-opacity="1"><g transform="translate(240.80617, 200.081778)"><g><path d="M 21.53125 -17.3125 L 21.53125 -27.765625 L 27 -27.765625 L 27 0 L 21.53125 0 L 21.53125 -12.640625 L 9.09375 -12.640625 L 9.09375 0 L 3.609375 0 L 3.609375 -27.765625 L 9.09375 -27.765625 L 9.09375 -17.3125 Z M 21.53125 -17.3125 "/></g></g></g><g fill="#000000" fill-opacity="1"><g transform="translate(273.812278, 200.081778)"><g><path d="M 15.140625 0.40625 C 12.585938 0.40625 10.335938 -0.113281 8.390625 -1.15625 C 6.453125 -2.195312 4.929688 -3.78125 3.828125 -5.90625 C 2.734375 -8.039062 2.1875 -10.695312 2.1875 -13.875 C 2.1875 -17.050781 2.734375 -19.707031 3.828125 -21.84375 C 4.929688 -23.976562 6.453125 -25.5625 8.390625 -26.59375 C 10.335938 -27.632812 12.585938 -28.15625 15.140625 -28.15625 C 17.679688 -28.15625 19.921875 -27.640625 21.859375 -26.609375 C 23.796875 -25.578125 25.3125 -23.988281 26.40625 -21.84375 C 27.5 -19.707031 28.046875 -17.050781 28.046875 -13.875 C 28.046875 -10.695312 27.5 -8.039062 26.40625 -5.90625 C 25.3125 -3.769531 23.796875 -2.179688 21.859375 -1.140625 C 19.921875 -0.109375 17.679688 0.40625 15.140625 0.40625 Z M 15.140625 -4.375 C 17.492188 -4.375 19.289062 -5.128906 20.53125 -6.640625 C 21.769531 -8.148438 22.390625 -10.5625 22.390625 -13.875 C 22.390625 -17.195312 21.769531 -19.617188 20.53125 -21.140625 C 19.289062 -22.660156 17.492188 -23.421875 15.140625 -23.421875 C 12.765625 -23.421875 10.953125 -22.660156 9.703125 -21.140625 C 8.460938 -19.617188 7.84375 -17.195312 7.84375 -13.875 C 7.84375 -10.5625 8.460938 -8.148438 9.703125 -6.640625 C 10.953125 -5.128906 12.765625 -4.375 15.140625 -4.375 Z M 15.140625 -4.375 "/></g></g></g><g fill="#000000" fill-opacity="1"><g transform="translate(306.438558, 200.081778)"><g><path d="M 14.34375 -27.765625 C 16.320312 -27.765625 18.015625 -27.398438 19.421875 -26.671875 C 20.835938 -25.941406 21.90625 -24.921875 22.625 -23.609375 C 23.351562 -22.296875 23.71875 -20.773438 23.71875 -19.046875 C 23.71875 -17.304688 23.351562 -15.785156 22.625 -14.484375 C 21.90625 -13.179688 20.835938 -12.164062 19.421875 -11.4375 C 18.015625 -10.707031 16.320312 -10.34375 14.34375 -10.34375 L 9.09375 -10.34375 L 9.09375 0 L 3.609375 0 L 3.609375 -27.765625 Z M 13.609375 -14.703125 C 16.660156 -14.703125 18.1875 -16.148438 18.1875 -19.046875 C 18.1875 -21.960938 16.660156 -23.421875 13.609375 -23.421875 L 9.09375 -23.421875 L 9.09375 -14.703125 Z M 13.609375 -14.703125 "/></g></g></g><g fill="#000000" fill-opacity="1"><g transform="translate(176.582703, 156.942608)"><g><path d="M 7.984375 0 L 5.75 0 L 5.359375 -2.5625 L 2.640625 -2.5625 L 2.25 0 L 0.21875 0 L 2.484375 -14.109375 L 5.71875 -14.109375 Z M 2.921875 -4.46875 L 5.0625 -4.46875 L 3.984375 -11.609375 Z M 2.921875 -4.46875 "/></g></g></g><g fill="#000000" fill-opacity="1"><g transform="translate(190.632951, 156.942608)"><g><path d="M 7.234375 -5.265625 L 7.234375 -3.390625 C 7.234375 -2.242188 6.953125 -1.363281 6.390625 -0.75 C 5.835938 -0.144531 5.019531 0.15625 3.9375 0.15625 C 2.84375 0.15625 2.015625 -0.144531 1.453125 -0.75 C 0.898438 -1.363281 0.625 -2.242188 0.625 -3.390625 L 0.625 -10.71875 C 0.625 -11.863281 0.898438 -12.738281 1.453125 -13.34375 C 2.015625 -13.957031 2.84375 -14.265625 3.9375 -14.265625 C 5.019531 -14.265625 5.835938 -13.957031 6.390625 -13.34375 C 6.953125 -12.738281 7.234375 -11.863281 7.234375 -10.71875 L 7.234375 -9.359375 L 5.140625 -9.359375 L 5.140625 -10.859375 C 5.140625 -11.367188 5.035156 -11.726562 4.828125 -11.9375 C 4.617188 -12.144531 4.335938 -12.25 3.984375 -12.25 C 3.640625 -12.25 3.363281 -12.144531 3.15625 -11.9375 C 2.945312 -11.726562 2.84375 -11.367188 2.84375 -10.859375 L 2.84375 -3.25 C 2.84375 -2.738281 2.945312 -2.378906 3.15625 -2.171875 C 3.363281 -1.972656 3.640625 -1.875 3.984375 -1.875 C 4.335938 -1.875 4.617188 -1.972656 4.828125 -2.171875 C 5.035156 -2.378906 5.140625 -2.738281 5.140625 -3.25 L 5.140625 -5.265625 Z M 7.234375 -5.265625 "/></g></g></g></svg>